<svg width="48" height="48" xmlns="http://www.w3.org/2000/svg">

 <g>
  <title>background</title>
  <rect fill="none" id="canvas_background" height="402" width="582" y="-1" x="-1"/>
 </g>
 <g>
  <title>Layer 1</title>
  <path id="svg_3" fill="#ff0000" d="m7.9,40.7l0,0c-1.4,0 -2.4,-1.1 -2.4,-2.4l0,-3.4c0,-0.1 0,-0.2 -0.1,-0.2l-3,-1.7c-0.6,-0.4 -1.1,-1 -1.2,-1.8c-0.1,-0.8 0.2,-1.5 0.7,-2.1c0.5,-0.5 1.1,-1 1.7,-1.3c1.8,-1.1 5.4,-2.2 8.5,-2.8c4.3,-0.8 7.2,-0.4 8.1,1.3c1,1.7 0,4.3 -3,7.7c-2.1,2.4 -4.9,4.9 -6.7,5.9c-0.6,0.4 -1.3,0.6 -2,0.8c-0.1,-0.1 -0.4,0 -0.6,0zm8.2,-14.1c-1,0 -2.1,0.1 -3.5,0.4c-3.2,0.6 -6.5,1.8 -7.8,2.6c-0.5,0.3 -0.9,0.6 -1.3,1c-0.1,0.1 -0.1,0.3 -0.1,0.3c0,0.1 0.1,0.1 0.1,0.2l3,1.7c0.7,0.4 1.2,1.2 1.2,2l0,3.5c0,0.2 0.2,0.3 0.4,0.2c0.5,-0.1 1,-0.4 1.5,-0.6c1.4,-0.8 4,-3 6.2,-5.5c2.7,-3.1 3,-4.8 2.7,-5.2c-0.2,-0.3 -0.9,-0.6 -2.4,-0.6z"/>
  <path id="svg_5" fill="#ff0000" d="m32,23.6c-2.2,0 -3.6,-0.6 -4.3,-1.7c-1,-1.7 0,-4.3 3,-7.7c2.1,-2.4 4.9,-4.9 6.7,-5.9c0.6,-0.4 1.3,-0.6 2,-0.8c1.7,-0.5 3.1,0.7 3.1,2.3l0,3.4c0,0.1 0,0.2 0.1,0.2l3,1.7c0.6,0.4 1.1,1 1.2,1.8c0.1,0.8 -0.2,1.5 -0.7,2.1c-0.5,0.5 -1.1,1 -1.7,1.3c-1.8,1.1 -5.4,2.3 -8.5,2.8c-1.5,0.3 -2.8,0.5 -3.9,0.5zm8.1,-14.1c0,0 -0.1,0 -0.1,0c-0.5,0.1 -1,0.4 -1.5,0.6c-1.4,0.8 -4,3 -6.2,5.5c-2.7,3.1 -3,4.8 -2.7,5.2c0.2,0.3 0.9,0.6 2.4,0.6c1,0 2.1,-0.1 3.5,-0.4c3.2,-0.6 6.5,-1.8 7.8,-2.6c0.5,-0.3 0.9,-0.6 1.3,-1c0.1,-0.1 0.1,-0.3 0.1,-0.3c0,-0.1 -0.1,-0.1 -0.1,-0.2l-3,-1.7c-0.7,-0.4 -1.2,-1.2 -1.2,-2l0,-3.5c0,-0.1 -0.2,-0.2 -0.3,-0.2z"/>
  <rect id="svg_7" y="25.1" x="15.5" width="2.1" transform="matrix(0.4999,0.8661,-0.8661,0.4999,32.7872,-0.2376) " height="6.4" fill="#ff0000"/>
  <rect id="svg_9" y="16.5" x="30.3" width="2.1" transform="matrix(0.4999,0.8661,-0.8661,0.4999,32.7881,-17.33) " height="6.4" fill="#ff0000"/>
  <path id="svg_11" fill="#ff0000" d="m40.1,40.7c0,0 0,0 0,0c-0.2,0 -0.5,0 -0.7,-0.1c-0.7,-0.2 -1.4,-0.5 -2,-0.8c-1.8,-1.1 -4.6,-3.5 -6.7,-5.9c-3,-3.4 -4,-6 -3,-7.7c1,-1.7 3.8,-2.1 8.1,-1.3c3.1,0.6 6.7,1.8 8.5,2.8c0.6,0.4 1.2,0.8 1.7,1.3c0.6,0.6 0.8,1.3 0.7,2.1c-0.1,0.7 -0.5,1.4 -1.2,1.8l-3,1.7c-0.1,0 -0.1,0.1 -0.1,0.2l0,3.4c0.1,1.4 -1,2.5 -2.3,2.5zm-8.1,-14.1c-1.5,0 -2.2,0.3 -2.4,0.6c-0.2,0.4 0,2.1 2.7,5.2c2.2,2.5 4.8,4.7 6.2,5.5c0.5,0.3 1,0.5 1.5,0.6c0.3,0.1 0.4,0 0.4,-0.2l0,-3.4c0,-0.8 0.4,-1.6 1.2,-2l3,-1.7c0.1,0 0.1,-0.1 0.1,-0.2c0,-0.1 0,-0.2 -0.1,-0.3c-0.4,-0.4 -0.8,-0.7 -1.3,-1c-1.4,-0.8 -4.6,-2 -7.8,-2.6c-1.4,-0.4 -2.6,-0.5 -3.5,-0.5z"/>
  <path id="svg_13" fill="#ff0000" d="m16,23.6c-1.1,0 -2.4,-0.1 -3.9,-0.4c-3.1,-0.6 -6.7,-1.8 -8.5,-2.8c-0.6,-0.5 -1.1,-0.9 -1.7,-1.4c-0.6,-0.6 -0.8,-1.3 -0.7,-2.1c0.1,-0.7 0.5,-1.4 1.2,-1.8l3,-1.7c0.1,0 0.1,-0.1 0.1,-0.2l0,-3.4c0,-1.3 1.1,-2.4 2.4,-2.4c0.2,0 0.5,0 0.7,0.1c0.7,0.2 1.4,0.5 2,0.8c1.8,1.1 4.6,3.5 6.7,5.9c3,3.4 4,6 3,7.7c-0.6,1.1 -2.1,1.7 -4.3,1.7zm-8.1,-14.1c-0.1,0 -0.3,0.1 -0.3,0.3l0,3.4c0,0.8 -0.4,1.6 -1.2,2l-3,1.7c-0.1,0 -0.1,0.1 -0.1,0.2c0,0.1 0,0.2 0.1,0.3c0.4,0.4 0.8,0.7 1.3,1c1.4,0.8 4.6,2 7.8,2.6c1.3,0.3 2.5,0.4 3.5,0.4c1.5,0 2.2,-0.3 2.4,-0.6c0.2,-0.4 0,-2.1 -2.7,-5.2c-2.2,-2.5 -4.8,-4.7 -6.2,-5.5c-0.5,-0.3 -1,-0.5 -1.5,-0.6c0,0 0,0 -0.1,0z"/>
  <rect id="svg_15" y="27.2" x="28.2" width="6.4" transform="matrix(0.866,0.5,-0.5,0.866,18.3428,-11.9123) " height="2.1" fill="#ff0000"/>
  <rect id="svg_17" y="18.7" x="13.4" width="6.4" transform="matrix(0.866,0.5,-0.5,0.866,12.0872,-5.6567) " height="2.1" fill="#ff0000"/>
  <path id="svg_19" fill="#ff0000" d="m24,19.7c-2,0 -3.7,-2.2 -5.2,-6.4c-1,-3 -1.8,-6.7 -1.8,-8.8c0,-0.7 0.1,-1.4 0.3,-2.1c0.3,-1.1 1.3,-1.9 2.4,-1.9c0.4,0 0.8,0.1 1.2,0.3l3,1.7c0.1,0 0.2,0 0.2,0l3,-1.7c0.4,-0.2 0.8,-0.3 1.2,-0.3c1.1,0 2.1,0.7 2.4,1.9c0.2,0.7 0.3,1.4 0.3,2.2c0,2.1 -0.7,5.8 -1.8,8.8c-1.5,4.2 -3.2,6.3 -5.2,6.3zm-4.3,-17.1c-0.1,0 -0.2,0.1 -0.3,0.3c-0.1,0.5 -0.2,1.1 -0.2,1.6c0,1.6 0.6,5 1.7,8.1c1.4,3.9 2.7,5 3.1,5s1.8,-1 3.1,-5c1.1,-3.1 1.7,-6.5 1.7,-8.1c0,-0.5 -0.1,-1.1 -0.2,-1.6l0,-0.1c0,-0.1 -0.3,-0.2 -0.4,-0.1l-3,1.7c-0.7,0.4 -1.6,0.4 -2.3,0l-3,-1.7c-0.1,-0.1 -0.2,-0.1 -0.2,-0.1z"/>
  <path id="svg_21" fill="#ff0000" d="m28.3,47.5c-0.4,0 -0.8,-0.1 -1.2,-0.3l-3,-1.7c-0.1,0 -0.2,0 -0.2,0l-3,1.7c-0.4,0.2 -0.8,0.3 -1.2,0.3c-1.1,0 -2.1,-0.7 -2.4,-1.9c-0.2,-0.7 -0.3,-1.4 -0.3,-2.2c0,-2.1 0.7,-5.8 1.8,-8.8c1.5,-4.3 3.2,-6.4 5.2,-6.4s3.7,2.2 5.2,6.4c1,3 1.8,6.7 1.8,8.8c0,0.7 -0.1,1.4 -0.3,2.1c-0.3,1.3 -1.3,2 -2.4,2zm-4.3,-4.2c0.4,0 0.8,0.1 1.2,0.3l3,1.7c0.1,0.1 0.3,0 0.4,-0.2c0.1,-0.5 0.2,-1.1 0.2,-1.6c0,-1.6 -0.6,-5 -1.7,-8.1c-1.4,-3.9 -2.7,-5 -3.1,-5s-1.8,1 -3.1,5c-1.1,3.1 -1.7,6.5 -1.7,8.1c0,0.5 0.1,1.1 0.2,1.6l0,0.1c0,0.1 0.3,0.2 0.4,0.1l3,-1.7c0.4,-0.2 0.8,-0.3 1.2,-0.3z"/>
  <rect id="svg_23" y="12.2" x="22.9" width="2.1" height="6.4" fill="#ff0000"/>
  <rect id="svg_25" y="29.3" x="22.9" width="2.1" height="6.4" fill="#ff0000"/>
 </g>
</svg>